STARTFONT 2.3
FONT -FontForge-Righteous-Book-R-Normal--9-90-72-72-P-48-ISO10646-1
SIZE 9 72 72  4
FONTBOUNDINGBOX 12 13 -2 -3
COMMENT "Generated by fontforge, http://fontforge.sourceforge.net"
COMMENT "Copyright (c) 2011 by Brian J. Bonislawsky DBA Astigmatic (AOETI) (astigma@astigmatic.com), with ReservedFont Name "Righteous""
STARTPROPERTIES 40
FOUNDRY "FontForge"
FAMILY_NAME "Righteous"
WEIGHT_NAME "Book"
SLANT "R"
SETWIDTH_NAME "Normal"
ADD_STYLE_NAME ""
PIXEL_SIZE 9
POINT_SIZE 90
RESOLUTION_X 72
RESOLUTION_Y 72
SPACING "P"
AVERAGE_WIDTH 48
CHARSET_REGISTRY "ISO10646"
CHARSET_ENCODING "1"
FONTNAME_REGISTRY ""
CHARSET_COLLECTIONS "ISO8859-2 ISO8859-9 ISO8859-4 ISO10646-1"
BITS_PER_PIXEL 4
FONT_NAME "Righteous-Regular"
FACE_NAME "Righteous"
COPYRIGHT "Copyright (c) 2011 by Brian J. Bonislawsky DBA Astigmatic (AOETI) (astigma@astigmatic.com), with ReservedFont Name "Righteous""
FONT_VERSION "1.000"
FONT_ASCENT 7
FONT_DESCENT 2
UNDERLINE_POSITION -1
UNDERLINE_THICKNESS 1
X_HEIGHT 4
CAP_HEIGHT 6
RAW_ASCENT 799
RAW_DESCENT 200
NORM_SPACE 3
RELATIVE_WEIGHT 40
RELATIVE_SETWIDTH 50
SUPERSCRIPT_X 0
SUPERSCRIPT_Y 4
SUPERSCRIPT_SIZE 5
SUBSCRIPT_X 0
SUBSCRIPT_Y 1
SUBSCRIPT_SIZE 5
AVG_LOWERCASE_WIDTH 47
AVG_UPPERCASE_WIDTH 56
ENDPROPERTIES
CHARS 372
STARTCHAR space
ENCODING 32
SWIDTH 279 0
DWIDTH 3 0
BBX 1 1 0 0
BITMAP
00
ENDCHAR
STARTCHAR exclam
ENCODING 33
SWIDTH 274 0
DWIDTH 2 0
BBX 2 8 0 -1
BITMAP
24
7E
6E
5D
5C
26
7E
13
ENDCHAR
STARTCHAR quotedbl
ENCODING 34
SWIDTH 409 0
DWIDTH 4 0
BBX 4 3 0 4
BITMAP
2341
7AE2
4691
ENDCHAR
STARTCHAR numbersign
ENCODING 35
SWIDTH 561 0
DWIDTH 5 0
BBX 5 5 0 1
BITMAP
012210
09CD60
2DBE50
6EDE20
5CB700
ENDCHAR
STARTCHAR dollar
ENCODING 36
SWIDTH 458 0
DWIDTH 4 0
BBX 4 7 0 0
BITMAP
0120
0591
6ED7
7CA4
38AB
6BC3
0480
ENDCHAR
STARTCHAR percent
ENCODING 37
SWIDTH 685 0
DWIDTH 6 0
BBX 6 8 0 -1
BITMAP
151031
8AB2C0
95C950
3B8B10
00B9D8
04AA4C
0C26E8
000010
ENDCHAR
STARTCHAR ampersand
ENCODING 38
SWIDTH 485 0
DWIDTH 4 0
BBX 4 7 0 0
BITMAP
0040
06E6
5C76
5D91
6B51
4DA8
02D3
ENDCHAR
STARTCHAR quotesingle
ENCODING 39
SWIDTH 238 0
DWIDTH 2 0
BBX 2 3 0 4
BITMAP
23
7A
46
ENDCHAR
STARTCHAR parenleft
ENCODING 40
SWIDTH 351 0
DWIDTH 3 0
BBX 3 9 0 -1
BITMAP
0130
0C90
4F10
8B00
A900
9A00
6D00
2F40
08B0
ENDCHAR
STARTCHAR parenright
ENCODING 41
SWIDTH 351 0
DWIDTH 3 0
BBX 3 9 0 -1
BITMAP
2200
6D10
0D70
09B0
07C0
08B0
0B90
2F40
9A00
ENDCHAR
STARTCHAR asterisk
ENCODING 42
SWIDTH 589 0
DWIDTH 5 0
BBX 5 6 0 2
BITMAP
007200
24F650
6FFFA0
09FD10
1E5D50
010100
ENDCHAR
STARTCHAR plus
ENCODING 43
SWIDTH 485 0
DWIDTH 4 0
BBX 4 5 0 1
BITMAP
0010
06C0
8DEC
4AD6
0470
ENDCHAR
STARTCHAR comma
ENCODING 44
SWIDTH 264 0
DWIDTH 2 0
BBX 2 3 0 -1
BITMAP
01
7D
2A
ENDCHAR
STARTCHAR hyphen
ENCODING 45
SWIDTH 528 0
DWIDTH 5 0
BBX 5 2 0 2
BITMAP
5CCC30
366610
ENDCHAR
STARTCHAR period
ENCODING 46
SWIDTH 263 0
DWIDTH 2 0
BBX 2 3 0 -1
BITMAP
01
7D
13
ENDCHAR
STARTCHAR slash
ENCODING 47
SWIDTH 490 0
DWIDTH 4 0
BBX 4 7 0 0
BITMAP
0014
007C
00D6
05E1
0B90
2F30
8B00
ENDCHAR
STARTCHAR zero
ENCODING 48
SWIDTH 642 0
DWIDTH 6 0
BBX 6 7 0 0
BITMAP
015400
1DDEA0
7D02F3
9900D6
9A00D5
5E35F2
09FF70
ENDCHAR
STARTCHAR one
ENCODING 49
SWIDTH 317 0
DWIDTH 3 0
BBX 3 7 0 0
BITMAP
3410
9F40
0F40
0F40
0F40
0F40
0F40
ENDCHAR
STARTCHAR two
ENCODING 50
SWIDTH 570 0
DWIDTH 5 0
BBX 5 7 0 0
BITMAP
244200
5EEF60
0008B0
08CE70
7E7500
9B4420
9FFF90
ENDCHAR
STARTCHAR three
ENCODING 51
SWIDTH 586 0
DWIDTH 5 0
BBX 5 7 0 0
BITMAP
244200
8EEF60
0008C0
09CE90
057CA0
244AC0
8FFD30
ENDCHAR
STARTCHAR four
ENCODING 52
SWIDTH 630 0
DWIDTH 6 0
BBX 6 7 0 0
BITMAP
041000
2F2670
4E09A0
6C09A0
8D8CD2
8BBDE3
0009A0
ENDCHAR
STARTCHAR five
ENCODING 53
SWIDTH 585 0
DWIDTH 5 0
BBX 5 7 0 0
BITMAP
144430
4FEEA0
6D0000
7FED40
2449D0
2449D0
8FFE40
ENDCHAR
STARTCHAR six
ENCODING 54
SWIDTH 615 0
DWIDTH 6 0
BBX 6 8 0 -1
BITMAP
004300
09C100
3FB920
8F9BD0
AB01F3
7E36F1
1BFF60
002100
ENDCHAR
STARTCHAR seven
ENCODING 55
SWIDTH 516 0
DWIDTH 5 0
BBX 5 7 0 0
BITMAP
344430
BEEF50
005E10
00AA00
01E500
05E000
0BA000
ENDCHAR
STARTCHAR eight
ENCODING 56
SWIDTH 618 0
DWIDTH 6 0
BBX 6 8 0 -1
BITMAP
027500
1ECE90
4F17D0
1EEF80
7D37E1
9B02F2
2DEE80
002100
ENDCHAR
STARTCHAR nine
ENCODING 57
SWIDTH 616 0
DWIDTH 6 0
BBX 6 7 0 0
BITMAP
026400
3EDF90
9B05F1
9B04F2
3FDEE0
026D90
009C10
ENDCHAR
STARTCHAR colon
ENCODING 58
SWIDTH 276 0
DWIDTH 2 0
BBX 2 5 0 -1
BITMAP
39
4A
02
6E
13
ENDCHAR
STARTCHAR semicolon
ENCODING 59
SWIDTH 276 0
DWIDTH 2 0
BBX 2 5 0 -1
BITMAP
39
4A
02
6E
1B
ENDCHAR
STARTCHAR less
ENCODING 60
SWIDTH 478 0
DWIDTH 4 0
BBX 4 5 0 1
BITMAP
00A8
0AE3
7F50
1BE3
00B8
ENDCHAR
STARTCHAR equal
ENCODING 61
SWIDTH 539 0
DWIDTH 5 0
BBX 5 4 0 1
BITMAP
4AAA30
388820
6DDD30
255510
ENDCHAR
STARTCHAR greater
ENCODING 62
SWIDTH 478 0
DWIDTH 4 0
BBX 4 5 0 1
BITMAP
4D20
1CD1
01EC
1BE3
4D20
ENDCHAR
STARTCHAR question
ENCODING 63
SWIDTH 603 0
DWIDTH 5 0
BBX 6 8 0 -1
BITMAP
344300
9EEFA0
0003F1
008DC0
06E610
046000
09B000
022000
ENDCHAR
STARTCHAR at
ENCODING 64
SWIDTH 629 0
DWIDTH 6 0
BBX 6 6 0 -1
BITMAP
06CB40
5B7AD1
98BE85
78BBB3
0AB500
001100
ENDCHAR
STARTCHAR A
ENCODING 65
SWIDTH 673 0
DWIDTH 6 0
BBX 6 7 0 0
BITMAP
003300
0BFFB0
5E22E6
7C00B8
7D88D8
7EBBE8
7C00B8
ENDCHAR
STARTCHAR B
ENCODING 66
SWIDTH 666 0
DWIDTH 6 0
BBX 6 7 0 0
BITMAP
244420
6FEEE3
6D00B9
6FCCF4
6E77E7
6D44C8
6FFFC1
ENDCHAR
STARTCHAR C
ENCODING 67
SWIDTH 640 0
DWIDTH 6 0
BBX 6 8 0 -1
BITMAP
003530
0AFEF6
6E3031
B90000
AA0000
4F7372
06EFE4
000200
ENDCHAR
STARTCHAR D
ENCODING 68
SWIDTH 653 0
DWIDTH 6 0
BBX 6 7 0 0
BITMAP
244200
6FFF80
6D05F4
6D00B9
6D00C8
6D49E2
6FFC40
ENDCHAR
STARTCHAR E
ENCODING 69
SWIDTH 578 0
DWIDTH 5 0
BBX 5 7 0 0
BITMAP
244440
6FEED0
6D0000
6FCB00
6E7700
6D4440
6FFFE0
ENDCHAR
STARTCHAR F
ENCODING 70
SWIDTH 562 0
DWIDTH 5 0
BBX 5 7 0 0
BITMAP
244440
6FEEE0
6D0000
6FC900
6E7500
6D0000
6D0000
ENDCHAR
STARTCHAR G
ENCODING 71
SWIDTH 665 0
DWIDTH 6 0
BBX 6 8 0 -1
BITMAP
003520
0AFEF5
6E3031
B90011
AA0099
5F72B9
06EFE5
000200
ENDCHAR
STARTCHAR H
ENCODING 72
SWIDTH 689 0
DWIDTH 6 0
BBX 6 7 0 0
BITMAP
240033
6D00A9
6D00A9
6FCCE9
6E77C9
6D00A9
6D00A9
ENDCHAR
STARTCHAR I
ENCODING 73
SWIDTH 270 0
DWIDTH 2 0
BBX 2 7 0 0
BITMAP
24
6D
6D
6D
6D
6D
6D
ENDCHAR
STARTCHAR J
ENCODING 74
SWIDTH 416 0
DWIDTH 4 0
BBX 4 7 0 0
BITMAP
0041
00F4
00F4
00F4
01F3
49E1
DC40
ENDCHAR
STARTCHAR K
ENCODING 75
SWIDTH 625 0
DWIDTH 6 0
BBX 6 7 0 0
BITMAP
240042
6D06E2
6D3E40
6DDC00
6FCF40
6E29C0
6D02F5
ENDCHAR
STARTCHAR L
ENCODING 76
SWIDTH 562 0
DWIDTH 5 0
BBX 5 7 0 0
BITMAP
240000
6D0000
6D0000
6D0000
6D0000
6D4440
6FFFF0
ENDCHAR
STARTCHAR M
ENCODING 77
SWIDTH 819 0
DWIDTH 7 0
BBX 7 7 0 0
BITMAP
02514400
2EEFEF70
6D0E57C0
7C0E56D0
7C0E56D0
7C0E56D0
7C0E56D0
ENDCHAR
STARTCHAR N
ENCODING 78
SWIDTH 689 0
DWIDTH 6 0
BBX 6 7 0 0
BITMAP
240033
6F60A9
6FE1A9
6DC9A9
6D3FC9
6D09F9
6D01E9
ENDCHAR
STARTCHAR O
ENCODING 79
SWIDTH 777 0
DWIDTH 7 0
BBX 7 8 0 -1
BITMAP
00353000
0AFEFA00
6E303E60
B90009B0
AA000AA0
4F737F40
06EFE600
00020000
ENDCHAR
STARTCHAR P
ENCODING 80
SWIDTH 642 0
DWIDTH 6 0
BBX 6 7 0 0
BITMAP
244300
6FEFC1
6D01D7
6D00B8
6E8AF3
6EBA40
6D0000
ENDCHAR
STARTCHAR Q
ENCODING 81
SWIDTH 777 0
DWIDTH 7 0
BBX 7 9 0 -2
BITMAP
00353000
0AFEFA00
6E303E60
B90009B0
AA000AA0
4F737F40
06EFF600
0003E600
00002300
ENDCHAR
STARTCHAR R
ENCODING 82
SWIDTH 651 0
DWIDTH 6 0
BBX 6 7 0 0
BITMAP
244300
6FEFC1
6D01D7
6D00B9
6E8AF4
6EBE90
6D06E0
ENDCHAR
STARTCHAR S
ENCODING 83
SWIDTH 610 0
DWIDTH 6 0
BBX 6 7 0 0
BITMAP
024440
6FEEE0
B90000
7ECB50
0579F2
2445F2
7FFE80
ENDCHAR
STARTCHAR T
ENCODING 84
SWIDTH 578 0
DWIDTH 5 0
BBX 6 7 0 0
BITMAP
444441
DEFEE2
00F400
00F400
00F400
00F400
00F400
ENDCHAR
STARTCHAR U
ENCODING 85
SWIDTH 673 0
DWIDTH 6 0
BBX 6 7 0 0
BITMAP
230032
7C00B8
7C00B8
7C00B8
7C00B8
3F76F4
06EE70
ENDCHAR
STARTCHAR V
ENCODING 86
SWIDTH 602 0
DWIDTH 5 0
BBX 6 7 0 0
BITMAP
420042
BA04F2
6E09C0
1F4D70
0BBF20
06FC00
02F700
ENDCHAR
STARTCHAR W
ENCODING 87
SWIDTH 819 0
DWIDTH 7 0
BBX 7 8 0 -1
BITMAP
24041240
7C0E56D0
7C0E56D0
7C0E56D0
7C0E56D0
6D4F89C0
1CFCFE40
00100000
ENDCHAR
STARTCHAR X
ENCODING 88
SWIDTH 608 0
DWIDTH 5 0
BBX 6 7 0 0
BITMAP
430142
8E18E1
0DBF60
04FC00
07FD10
2E7D80
AC05F3
ENDCHAR
STARTCHAR Y
ENCODING 89
SWIDTH 620 0
DWIDTH 6 0
BBX 6 7 0 0
BITMAP
320041
B800E5
B800F4
8D47F2
1BFE60
00D600
00D600
ENDCHAR
STARTCHAR Z
ENCODING 90
SWIDTH 586 0
DWIDTH 5 0
BBX 6 7 0 0
BITMAP
444440
BEEFA0
006F20
01D900
07E100
1EB440
8FFFF1
ENDCHAR
STARTCHAR bracketleft
ENCODING 91
SWIDTH 380 0
DWIDTH 3 0
BBX 4 9 0 -1
BITMAP
1330
7FF1
7D10
7D00
7D00
7D00
7D00
7E50
6EE1
ENDCHAR
STARTCHAR backslash
ENCODING 92
SWIDTH 490 0
DWIDTH 4 0
BBX 4 7 0 0
BITMAP
3300
6D00
1E40
09B0
03F2
00C8
005E
ENDCHAR
STARTCHAR bracketright
ENCODING 93
SWIDTH 380 0
DWIDTH 3 0
BBX 3 9 0 -1
BITMAP
2330
AFD0
17D0
06D0
06D0
06D0
06D0
49D0
9EC0
ENDCHAR
STARTCHAR asciicircum
ENCODING 94
SWIDTH 293 0
DWIDTH 3 0
BBX 3 3 0 4
BITMAP
0200
8E40
5330
ENDCHAR
STARTCHAR underscore
ENCODING 95
SWIDTH 598 0
DWIDTH 5 0
BBX 5 3 0 -3
BITMAP
011110
2FFF80
011110
ENDCHAR
STARTCHAR grave
ENCODING 96
SWIDTH 225 0
DWIDTH 2 0
BBX 2 3 0 4
BITMAP
10
B9
15
ENDCHAR
STARTCHAR a
ENCODING 97
SWIDTH 607 0
DWIDTH 5 0
BBX 5 6 0 -1
BITMAP
08DA70
8D6CF0
B704F0
9B29F0
2CFDB0
001000
ENDCHAR
STARTCHAR b
ENCODING 98
SWIDTH 597 0
DWIDTH 5 0
BBX 6 8 0 -1
BITMAP
650000
A80000
ACDB20
AE6AD0
9901F2
7D37E0
0AFE50
001000
ENDCHAR
STARTCHAR c
ENCODING 99
SWIDTH 521 0
DWIDTH 5 0
BBX 5 6 0 -1
BITMAP
08DA10
7D6B40
B70000
9B2720
1CFD30
001000
ENDCHAR
STARTCHAR d
ENCODING 100
SWIDTH 606 0
DWIDTH 5 0
BBX 5 8 0 -1
BITMAP
000290
0003F0
08DBF0
7D6CF0
B704F0
9C3AF0
1CFDB0
001000
ENDCHAR
STARTCHAR e
ENCODING 101
SWIDTH 524 0
DWIDTH 5 0
BBX 5 6 0 -1
BITMAP
18DA10
8D8F40
B8D700
9FB720
1CFD30
001000
ENDCHAR
STARTCHAR f
ENCODING 102
SWIDTH 395 0
DWIDTH 4 0
BBX 4 7 0 0
BITMAP
06EC
2F52
9FB5
7F73
3F00
3F00
3F00
ENDCHAR
STARTCHAR g
ENCODING 103
SWIDTH 607 0
DWIDTH 5 0
BBX 5 7 0 -2
BITMAP
08DA70
7D6CF0
B704F0
9C39F0
2CFEF0
007CA0
00C910
ENDCHAR
STARTCHAR h
ENCODING 104
SWIDTH 562 0
DWIDTH 5 0
BBX 5 7 0 0
BITMAP
560000
8A0000
8DB800
8E7D60
8A08A0
8A08A0
8A08A0
ENDCHAR
STARTCHAR i
ENCODING 105
SWIDTH 235 0
DWIDTH 2 0
BBX 2 7 0 0
BITMAP
68
78
67
8A
8A
8A
8A
ENDCHAR
STARTCHAR j
ENCODING 106
SWIDTH 237 0
DWIDTH 2 0
BBX 4 9 -2 -2
BITMAP
0068
0079
0067
008A
008A
008A
009A
27E5
4B60
ENDCHAR
STARTCHAR k
ENCODING 107
SWIDTH 539 0
DWIDTH 5 0
BBX 5 7 0 0
BITMAP
560000
8A0000
8A0960
8A7D10
8DF700
8FAE10
8B0C80
ENDCHAR
STARTCHAR l
ENCODING 108
SWIDTH 235 0
DWIDTH 2 0
BBX 2 7 0 0
BITMAP
56
8A
8A
8A
8A
8A
8A
ENDCHAR
STARTCHAR m
ENCODING 109
SWIDTH 762 0
DWIDTH 7 0
BBX 7 5 0 0
BITMAP
59B7B800
8D9F8E50
8A2F1B70
8A2F1B70
8A2F1B70
ENDCHAR
STARTCHAR n
ENCODING 110
SWIDTH 562 0
DWIDTH 5 0
BBX 5 5 0 0
BITMAP
57B800
8E7D60
8A08A0
8A08A0
8A08A0
ENDCHAR
STARTCHAR o
ENCODING 111
SWIDTH 579 0
DWIDTH 5 0
BBX 5 6 0 -1
BITMAP
08DA20
8D6BB0
B704E0
9C29C0
1BFD30
001000
ENDCHAR
STARTCHAR p
ENCODING 112
SWIDTH 608 0
DWIDTH 5 0
BBX 6 7 0 -2
BITMAP
56CB30
8F79E1
8B00F3
8E36F1
8EFE60
8A1000
780000
ENDCHAR
STARTCHAR q
ENCODING 113
SWIDTH 607 0
DWIDTH 5 0
BBX 5 7 0 -2
BITMAP
08C970
8D6CF0
B704F0
9B29F0
1CFEF0
0013F0
0002C0
ENDCHAR
STARTCHAR r
ENCODING 114
SWIDTH 414 0
DWIDTH 4 0
BBX 4 5 0 0
BITMAP
56A7
8E85
8A00
8A00
8A00
ENDCHAR
STARTCHAR s
ENCODING 115
SWIDTH 523 0
DWIDTH 5 0
BBX 5 5 0 0
BITMAP
29BB20
9C8820
7EDC20
268D70
BFFD20
ENDCHAR
STARTCHAR t
ENCODING 116
SWIDTH 437 0
DWIDTH 4 0
BBX 4 7 0 0
BITMAP
2800
4E00
AFB8
9E86
4E00
2F52
07EB
ENDCHAR
STARTCHAR u
ENCODING 117
SWIDTH 562 0
DWIDTH 5 0
BBX 5 6 0 -1
BITMAP
660660
990990
990990
7C3C90
1CFB80
001000
ENDCHAR
STARTCHAR v
ENCODING 118
SWIDTH 532 0
DWIDTH 5 0
BBX 5 5 0 0
BITMAP
950770
8C1E50
2F7E00
0CF900
06F300
ENDCHAR
STARTCHAR w
ENCODING 119
SWIDTH 756 0
DWIDTH 7 0
BBX 7 6 0 -1
BITMAP
662B0840
993F0C60
993F0C60
8B5F3D50
2DFCFC10
00101000
ENDCHAR
STARTCHAR x
ENCODING 120
SWIDTH 528 0
DWIDTH 5 0
BBX 5 5 0 0
BITMAP
880A60
2EBD10
08F400
1DDB00
AB1E70
ENDCHAR
STARTCHAR y
ENCODING 121
SWIDTH 562 0
DWIDTH 5 0
BBX 5 7 0 -2
BITMAP
660660
990990
990990
7C3C90
1CFF90
038E40
05B500
ENDCHAR
STARTCHAR z
ENCODING 122
SWIDTH 481 0
DWIDTH 4 0
BBX 5 5 0 0
BITMAP
8BBA00
68F700
06D000
1E8300
8FFF20
ENDCHAR
STARTCHAR braceleft
ENCODING 123
SWIDTH 466 0
DWIDTH 4 0
BBX 4 9 0 -1
BITMAP
0023
07FD
0AA1
0A90
AF40
5D70
0A90
0AB5
04DC
ENDCHAR
STARTCHAR bar
ENCODING 124
SWIDTH 267 0
DWIDTH 2 0
BBX 2 9 0 -1
BITMAP
13
7D
7D
7D
7D
7D
7D
7D
6B
ENDCHAR
STARTCHAR braceright
ENCODING 125
SWIDTH 466 0
DWIDTH 4 0
BBX 4 9 0 -1
BITMAP
2300
AFA0
17D0
06D0
02ED
04E7
06D0
49D0
9D60
ENDCHAR
STARTCHAR asciitilde
ENCODING 126
SWIDTH 451 0
DWIDTH 4 0
BBX 4 3 0 2
BITMAP
0101
7FC9
4462
ENDCHAR
STARTCHAR nonbreakingspace
ENCODING 160
SWIDTH 279 0
DWIDTH 3 0
BBX 1 1 0 0
BITMAP
00
ENDCHAR
STARTCHAR exclamdown
ENCODING 161
SWIDTH 274 0
DWIDTH 2 0
BBX 2 8 0 -2
BITMAP
13
7E
27
5C
5D
6E
7E
24
ENDCHAR
STARTCHAR cent
ENCODING 162
SWIDTH 462 0
DWIDTH 4 0
BBX 4 7 0 0
BITMAP
0130
03B0
3EC9
9601
7A56
08D4
02A0
ENDCHAR
STARTCHAR sterling
ENCODING 163
SWIDTH 681 0
DWIDTH 6 0
BBX 6 7 0 0
BITMAP
002200
07F800
0C7000
5EB200
5EB200
0D849A
0DFFD3
ENDCHAR
STARTCHAR currency
ENCODING 164
SWIDTH 454 0
DWIDTH 4 0
BBX 4 4 0 1
BITMAP
7778
5986
5996
5666
ENDCHAR
STARTCHAR yen
ENCODING 165
SWIDTH 653 0
DWIDTH 6 0
BBX 6 7 0 0
BITMAP
330042
9A00C7
9B00C7
6E45F4
2DFFC1
5DEED3
00A900
ENDCHAR
STARTCHAR brokenbar
ENCODING 166
SWIDTH 269 0
DWIDTH 2 0
BBX 2 9 0 -1
BITMAP
13
6D
6D
6D
35
49
6D
6D
6B
ENDCHAR
STARTCHAR section
ENCODING 167
SWIDTH 569 0
DWIDTH 5 0
BBX 5 7 0 0
BITMAP
034420
4FDD50
6EA910
7D8C90
5FDE90
168CA0
8FFE50
ENDCHAR
STARTCHAR dieresis
ENCODING 168
SWIDTH 300 0
DWIDTH 3 0
BBX 3 2 0 4
BITMAP
B580
2120
ENDCHAR
STARTCHAR copyright
ENCODING 169
SWIDTH 655 0
DWIDTH 6 0
BBX 6 6 0 0
BITMAP
039920
3A99A2
892136
796445
1A9AA0
015400
ENDCHAR
STARTCHAR ordfeminine
ENCODING 170
SWIDTH 451 0
DWIDTH 4 0
BBX 4 5 0 2
BITMAP
0431
59A6
6796
0763
5BB4
ENDCHAR
STARTCHAR guillemotleft
ENCODING 171
SWIDTH 704 0
DWIDTH 6 0
BBX 6 5 0 0
BITMAP
005014
08D2C9
7E2BB0
2D95E5
02A148
ENDCHAR
STARTCHAR logicalnot
ENCODING 172
SWIDTH 529 0
DWIDTH 5 0
BBX 5 3 0 1
BITMAP
5CCC20
366F30
000410
ENDCHAR
STARTCHAR uni00AD
ENCODING 173
SWIDTH 418 0
DWIDTH 4 0
BBX 4 2 0 2
BITMAP
5CC3
3661
ENDCHAR
STARTCHAR registered
ENCODING 174
SWIDTH 439 0
DWIDTH 4 0
BBX 4 4 0 3
BITMAP
0330
5995
6876
2882
ENDCHAR
STARTCHAR macron
ENCODING 175
SWIDTH 247 0
DWIDTH 2 0
BBX 3 2 0 4
BITMAP
BB20
3310
ENDCHAR
STARTCHAR degree
ENCODING 176
SWIDTH 381 0
DWIDTH 3 0
BBX 4 4 0 3
BITMAP
0100
6DC0
98E1
1950
ENDCHAR
STARTCHAR plusminus
ENCODING 177
SWIDTH 516 0
DWIDTH 5 0
BBX 5 5 0 0
BITMAP
03B000
6DFC20
39E610
248300
8FFF30
ENDCHAR
STARTCHAR twosuperior
ENCODING 178
SWIDTH 355 0
DWIDTH 3 0
BBX 3 4 0 3
BITMAP
2510
3CA0
6C50
6C80
ENDCHAR
STARTCHAR threesuperior
ENCODING 179
SWIDTH 354 0
DWIDTH 3 0
BBX 3 4 0 3
BITMAP
2410
4CB0
2CB0
6C60
ENDCHAR
STARTCHAR acute
ENCODING 180
SWIDTH 225 0
DWIDTH 2 0
BBX 2 3 0 4
BITMAP
01
8B
51
ENDCHAR
STARTCHAR mu
ENCODING 181
SWIDTH 571 0
DWIDTH 5 0
BBX 5 7 0 -2
BITMAP
580580
7B07B0
7B07B0
7E3BB0
7EFC90
791000
780000
ENDCHAR
STARTCHAR paragraph
ENCODING 182
SWIDTH 808 0
DWIDTH 7 0
BBX 7 7 0 0
BITMAP
00455430
1CFFFF90
8D1E4990
9A0E4990
4F9F4990
04AF4990
000E4990
ENDCHAR
STARTCHAR periodcentered
ENCODING 183
SWIDTH 261 0
DWIDTH 2 0
BBX 2 2 0 2
BITMAP
6A
36
ENDCHAR
STARTCHAR cedilla
ENCODING 184
SWIDTH 208 0
DWIDTH 2 0
BBX 2 3 0 -2
BITMAP
11
58
BB
ENDCHAR
STARTCHAR onesuperior
ENCODING 185
SWIDTH 231 0
DWIDTH 2 0
BBX 2 4 0 3
BITMAP
32
78
58
46
ENDCHAR
STARTCHAR ordmasculine
ENCODING 186
SWIDTH 432 0
DWIDTH 4 0
BBX 4 5 0 2
BITMAP
0440
59A3
6794
0760
5BB4
ENDCHAR
STARTCHAR guillemotright
ENCODING 187
SWIDTH 703 0
DWIDTH 6 0
BBX 6 5 0 0
BITMAP
140410
5E39C1
06E2BC
2D95E5
480840
ENDCHAR
STARTCHAR onequarter
ENCODING 188
SWIDTH 648 0
DWIDTH 6 0
BBX 6 7 0 0
BITMAP
240130
4C0A40
1C3B00
19B400
05AC93
0C2EC5
6807C5
ENDCHAR
STARTCHAR onehalf
ENCODING 189
SWIDTH 637 0
DWIDTH 6 0
BBX 6 7 0 0
BITMAP
240130
4C0A40
1C3B00
19B410
05A9D4
0C29C3
680DD4
ENDCHAR
STARTCHAR threequarters
ENCODING 190
SWIDTH 708 0
DWIDTH 6 0
BBX 6 7 0 0
BITMAP
341031
6C92C0
3C9A50
7C8B10
00B7BA
04A6CD
0C237D
ENDCHAR
STARTCHAR questiondown
ENCODING 191
SWIDTH 602 0
DWIDTH 5 0
BBX 6 8 0 -2
BITMAP
000400
005F10
002800
05BD00
7EA300
AA0000
4FFFF1
024440
ENDCHAR
STARTCHAR Agrave
ENCODING 192
SWIDTH 673 0
DWIDTH 6 0
BBX 6 9 0 0
BITMAP
001000
04D200
007500
0BFFB0
5E22E6
7C00B8
7D88D8
7EBBE8
7C00B8
ENDCHAR
STARTCHAR Aacute
ENCODING 193
SWIDTH 673 0
DWIDTH 6 0
BBX 6 9 0 0
BITMAP
000100
002D50
004700
0BFFB0
5E22E6
7C00B8
7D88D8
7EBBE8
7C00B8
ENDCHAR
STARTCHAR Acircumflex
ENCODING 194
SWIDTH 673 0
DWIDTH 6 0
BBX 6 9 0 0
BITMAP
000100
00BB10
006600
0BFFB0
5E22E6
7C00B8
7D88D8
7EBBE8
7C00B8
ENDCHAR
STARTCHAR Atilde
ENCODING 195
SWIDTH 673 0
DWIDTH 6 0
BBX 6 9 0 0
BITMAP
002110
05DD60
025610
0BFFB0
5E22E6
7C00B8
7D88D8
7EBBE8
7C00B8
ENDCHAR
STARTCHAR Adieresis
ENCODING 196
SWIDTH 673 0
DWIDTH 6 0
BBX 6 8 0 0
BITMAP
039840
005510
0BFFB0
5E22E6
7C00B8
7D88D8
7EBBE8
7C00B8
ENDCHAR
STARTCHAR Aring
ENCODING 197
SWIDTH 673 0
DWIDTH 6 0
BBX 6 8 0 0
BITMAP
006700
00AB00
0BFFB0
5E22E6
7C00B8
7D88D8
7EBBE8
7C00B8
ENDCHAR
STARTCHAR AE
ENCODING 198
SWIDTH 988 0
DWIDTH 9 0
BBX 9 7 0 0
BITMAP
0034444430
0BFEFFEE90
5E20B80000
7C00BEC700
7D88DC7400
7EBBEA4420
7C00BFFF90
ENDCHAR
STARTCHAR Ccedilla
ENCODING 199
SWIDTH 640 0
DWIDTH 6 0
BBX 6 9 0 -2
BITMAP
003530
0AFEF6
6E3031
B90000
AA0000
4F7372
06EFE4
005900
00BA00
ENDCHAR
STARTCHAR Egrave
ENCODING 200
SWIDTH 578 0
DWIDTH 5 0
BBX 5 9 0 0
BITMAP
001000
07C100
25A540
6FEED0
6D0000
6FCB00
6E7700
6D4440
6FFFE0
ENDCHAR
STARTCHAR Eacute
ENCODING 201
SWIDTH 578 0
DWIDTH 5 0
BBX 5 9 0 0
BITMAP
000100
004E20
248740
6FEED0
6D0000
6FCB00
6E7700
6D4440
6FFFE0
ENDCHAR
STARTCHAR Ecircumflex
ENCODING 202
SWIDTH 578 0
DWIDTH 5 0
BBX 5 9 0 0
BITMAP
001000
02D800
257840
6FEED0
6D0000
6FCB00
6E7700
6D4440
6FFFE0
ENDCHAR
STARTCHAR Edieresis
ENCODING 203
SWIDTH 578 0
DWIDTH 5 0
BBX 5 8 0 0
BITMAP
076B00
265740
6FEED0
6D0000
6FCB00
6E7700
6D4440
6FFFE0
ENDCHAR
STARTCHAR Igrave
ENCODING 204
SWIDTH 270 0
DWIDTH 2 0
BBX 3 9 -1 0
BITMAP
0100
1E40
0470
06D0
06D0
06D0
06D0
06D0
06D0
ENDCHAR
STARTCHAR Iacute
ENCODING 205
SWIDTH 270 0
DWIDTH 2 0
BBX 3 9 0 0
BITMAP
0110
1B70
2900
6D00
6D00
6D00
6D00
6D00
6D00
ENDCHAR
STARTCHAR Icircumflex
ENCODING 206
SWIDTH 270 0
DWIDTH 2 0
BBX 3 9 0 0
BITMAP
0100
9D20
5610
6D00
6D00
6D00
6D00
6D00
6D00
ENDCHAR
STARTCHAR Idieresis
ENCODING 207
SWIDTH 270 0
DWIDTH 2 0
BBX 4 8 -1 0
BITMAP
1B56
0451
06D0
06D0
06D0
06D0
06D0
06D0
ENDCHAR
STARTCHAR Eth
ENCODING 208
SWIDTH 672 0
DWIDTH 6 0
BBX 6 7 0 0
BITMAP
144200
4FFFA0
4F03E7
CF908B
8F509B
4F48F4
4FFD50
ENDCHAR
STARTCHAR Ntilde
ENCODING 209
SWIDTH 689 0
DWIDTH 6 0
BBX 6 9 0 0
BITMAP
002110
04ED70
263333
6F60A9
6FE1A9
6DC9A9
6D3FC9
6D09F9
6D01E9
ENDCHAR
STARTCHAR Ograve
ENCODING 210
SWIDTH 777 0
DWIDTH 7 0
BBX 7 10 0 -1
BITMAP
00100000
00C80000
004A3000
0AFEFA00
6E303E60
B90009B0
AA000AA0
4F737F40
06EFE600
00020000
ENDCHAR
STARTCHAR Oacute
ENCODING 211
SWIDTH 777 0
DWIDTH 7 0
BBX 7 10 0 -1
BITMAP
00001000
0007C000
003A4000
0AFEFA00
6E303E60
B90009B0
AA000AA0
4F737F40
06EFE600
00020000
ENDCHAR
STARTCHAR Ocircumflex
ENCODING 212
SWIDTH 777 0
DWIDTH 7 0
BBX 7 10 0 -1
BITMAP
00010000
005E5000
00575000
0AFEFA00
6E303E60
B90009B0
AA000AA0
4F737F40
06EFE600
00020000
ENDCHAR
STARTCHAR Otilde
ENCODING 213
SWIDTH 777 0
DWIDTH 7 0
BBX 7 10 0 -1
BITMAP
00112000
00DCD000
00665000
0AFEFA00
6E303E60
B90009B0
AA000AA0
4F737F40
06EFE600
00020000
ENDCHAR
STARTCHAR Odieresis
ENCODING 214
SWIDTH 777 0
DWIDTH 7 0
BBX 7 9 0 -1
BITMAP
00A49000
00555000
0AFEFA00
6E303E60
B90009B0
AA000AA0
4F737F40
06EFE600
00020000
ENDCHAR
STARTCHAR multiply
ENCODING 215
SWIDTH 479 0
DWIDTH 4 0
BBX 4 4 0 1
BITMAP
3967
2EF5
4FE9
0322
ENDCHAR
STARTCHAR Oslash
ENCODING 216
SWIDTH 777 0
DWIDTH 7 0
BBX 7 8 0 -1
BITMAP
00353410
0AFEFE10
6E32EE60
B90C59B0
AA990AA0
4FE37F40
2EEFE600
00020000
ENDCHAR
STARTCHAR Ugrave
ENCODING 217
SWIDTH 673 0
DWIDTH 6 0
BBX 6 9 0 0
BITMAP
001000
03E300
234232
7C00B8
7C00B8
7C00B8
7C00B8
3F76F4
06EE70
ENDCHAR
STARTCHAR Uacute
ENCODING 218
SWIDTH 673 0
DWIDTH 6 0
BBX 6 9 0 0
BITMAP
000100
001C60
231532
7C00B8
7C00B8
7C00B8
7C00B8
3F76F4
06EE70
ENDCHAR
STARTCHAR Ucircumflex
ENCODING 219
SWIDTH 673 0
DWIDTH 6 0
BBX 6 9 0 0
BITMAP
000100
00BB10
233332
7C00B8
7C00B8
7C00B8
7C00B8
3F76F4
06EE70
ENDCHAR
STARTCHAR Udieresis
ENCODING 220
SWIDTH 673 0
DWIDTH 6 0
BBX 6 8 0 0
BITMAP
039840
242242
7C00B8
7C00B8
7C00B8
7C00B8
3F76F4
06EE70
ENDCHAR
STARTCHAR Yacute
ENCODING 221
SWIDTH 620 0
DWIDTH 6 0
BBX 6 9 0 0
BITMAP
000100
004E20
323341
B800E5
B800F4
8D47F2
1BFE60
00D600
00D600
ENDCHAR
STARTCHAR Thorn
ENCODING 222
SWIDTH 637 0
DWIDTH 6 0
BBX 6 8 0 -1
BITMAP
470000
6EA930
6E9BF3
6D00B8
6D01D7
6FDED1
6E6410
230000
ENDCHAR
STARTCHAR germandbls
ENCODING 223
SWIDTH 813 0
DWIDTH 7 0
BBX 8 7 0 0
BITMAP
06EFE400
2F539C00
9F08D900
7F5E6100
3F3FDDA0
3F0578F3
3F1FFFB0
ENDCHAR
STARTCHAR agrave
ENCODING 224
SWIDTH 607 0
DWIDTH 5 0
BBX 5 9 0 -1
BITMAP
010000
0A9000
015000
08DA70
8D6CF0
B704F0
9B29F0
2CFDB0
001000
ENDCHAR
STARTCHAR aacute
ENCODING 225
SWIDTH 607 0
DWIDTH 5 0
BBX 5 9 0 -1
BITMAP
000100
007D00
005100
08DA70
8D6CF0
B704F0
9B29F0
2CFDB0
001000
ENDCHAR
STARTCHAR acircumflex
ENCODING 226
SWIDTH 607 0
DWIDTH 5 0
BBX 5 9 0 -1
BITMAP
001000
04E600
022300
08DA70
8D6CF0
B704F0
9B29F0
2CFDB0
001000
ENDCHAR
STARTCHAR atilde
ENCODING 227
SWIDTH 607 0
DWIDTH 5 0
BBX 5 8 0 -1
BITMAP
011200
0BCE00
0CEC70
8D6CF0
B704F0
9B29F0
2CFDB0
001000
ENDCHAR
STARTCHAR adieresis
ENCODING 228
SWIDTH 607 0
DWIDTH 5 0
BBX 5 7 0 -1
BITMAP
095B00
0ADC70
8D6CF0
B704F0
9B29F0
2CFDB0
001000
ENDCHAR
STARTCHAR aring
ENCODING 229
SWIDTH 607 0
DWIDTH 5 0
BBX 5 9 0 -1
BITMAP
004100
03C600
005100
08DA70
8D6CF0
B704F0
9B29F0
2CFDB0
001000
ENDCHAR
STARTCHAR ae
ENCODING 230
SWIDTH 976 0
DWIDTH 9 0
BBX 9 6 0 -1
BITMAP
08DA78DB20
8D6CFE8F50
B704F8C800
9B29FFB720
2CFDBBFE40
0010001000
ENDCHAR
STARTCHAR ccedilla
ENCODING 231
SWIDTH 521 0
DWIDTH 5 0
BBX 5 7 0 -2
BITMAP
08DA10
7D6B40
B70000
9B2720
1CFD30
00B200
05D300
ENDCHAR
STARTCHAR egrave
ENCODING 232
SWIDTH 524 0
DWIDTH 5 0
BBX 5 9 0 -1
BITMAP
010000
0B8000
015000
18DA10
8D8F40
B8D700
9FB720
1CFD30
001000
ENDCHAR
STARTCHAR eacute
ENCODING 233
SWIDTH 524 0
DWIDTH 5 0
BBX 5 9 0 -1
BITMAP
000100
007C00
005100
18DA10
8D8F40
B8D700
9FB720
1CFD30
001000
ENDCHAR
STARTCHAR ecircumflex
ENCODING 234
SWIDTH 524 0
DWIDTH 5 0
BBX 5 9 0 -1
BITMAP
001000
06E400
032200
18DA10
8D8F40
B8D700
9FB720
1CFD30
001000
ENDCHAR
STARTCHAR edieresis
ENCODING 235
SWIDTH 524 0
DWIDTH 5 0
BBX 5 7 0 -1
BITMAP
0B5800
1BDC10
8D8F40
B8D700
9FB720
1CFD30
001000
ENDCHAR
STARTCHAR igrave
ENCODING 236
SWIDTH 235 0
DWIDTH 2 0
BBX 3 8 -1 0
BITMAP
0100
3E30
0420
0670
08A0
08A0
08A0
08A0
ENDCHAR
STARTCHAR iacute
ENCODING 237
SWIDTH 235 0
DWIDTH 2 0
BBX 3 8 0 0
BITMAP
0100
2D50
1500
6700
8A00
8A00
8A00
8A00
ENDCHAR
STARTCHAR icircumflex
ENCODING 238
SWIDTH 235 0
DWIDTH 2 0
BBX 3 8 0 0
BITMAP
0100
BC10
3300
6700
8A00
8A00
8A00
8A00
ENDCHAR
STARTCHAR idieresis
ENCODING 239
SWIDTH 235 0
DWIDTH 2 0
BBX 4 6 -1 0
BITMAP
3A74
0891
08A0
08A0
08A0
08A0
ENDCHAR
STARTCHAR eth
ENCODING 240
SWIDTH 581 0
DWIDTH 5 0
BBX 5 8 0 -1
BITMAP
04C840
09BFA0
08CF70
7D6BC0
B704F0
9C29C0
1BFD30
001000
ENDCHAR
STARTCHAR ntilde
ENCODING 241
SWIDTH 562 0
DWIDTH 5 0
BBX 5 7 0 0
BITMAP
011200
0CCE00
5BCA00
8E7D60
8A08A0
8A08A0
8A08A0
ENDCHAR
STARTCHAR ograve
ENCODING 242
SWIDTH 579 0
DWIDTH 5 0
BBX 5 9 0 -1
BITMAP
010000
0A9000
015000
08DA20
8D6BB0
B704E0
9C29C0
1BFD30
001000
ENDCHAR
STARTCHAR oacute
ENCODING 243
SWIDTH 579 0
DWIDTH 5 0
BBX 5 9 0 -1
BITMAP
000100
007D00
005100
08DA20
8D6BB0
B704E0
9C29C0
1BFD30
001000
ENDCHAR
STARTCHAR ocircumflex
ENCODING 244
SWIDTH 579 0
DWIDTH 5 0
BBX 5 9 0 -1
BITMAP
001000
04E600
022300
08DA20
8D6BB0
B704E0
9C29C0
1BFD30
001000
ENDCHAR
STARTCHAR otilde
ENCODING 245
SWIDTH 579 0
DWIDTH 5 0
BBX 5 8 0 -1
BITMAP
011200
0BCE00
0CED20
8D6BB0
B704E0
9C29C0
1BFD30
001000
ENDCHAR
STARTCHAR odieresis
ENCODING 246
SWIDTH 579 0
DWIDTH 5 0
BBX 5 7 0 -1
BITMAP
095B00
0ADC20
8D6BB0
B704E0
9C29C0
1BFD30
001000
ENDCHAR
STARTCHAR divide
ENCODING 247
SWIDTH 494 0
DWIDTH 4 0
BBX 5 5 0 1
BITMAP
014000
04A000
7CCC10
479600
04B000
ENDCHAR
STARTCHAR oslash
ENCODING 248
SWIDTH 579 0
DWIDTH 5 0
BBX 5 6 0 -1
BITMAP
08DB80
8D8FB0
B8D9E0
9FA9C0
6EFD30
001000
ENDCHAR
STARTCHAR ugrave
ENCODING 249
SWIDTH 562 0
DWIDTH 5 0
BBX 5 9 0 -1
BITMAP
010000
0C8000
015000
660660
990990
990990
7C3C90
1CFB80
001000
ENDCHAR
STARTCHAR uacute
ENCODING 250
SWIDTH 562 0
DWIDTH 5 0
BBX 5 9 0 -1
BITMAP
000100
008C00
005100
660660
990990
990990
7C3C90
1CFB80
001000
ENDCHAR
STARTCHAR ucircumflex
ENCODING 251
SWIDTH 562 0
DWIDTH 5 0
BBX 5 8 0 -1
BITMAP
001000
05E500
692960
990990
990990
7C3C90
1CFB80
001000
ENDCHAR
STARTCHAR udieresis
ENCODING 252
SWIDTH 562 0
DWIDTH 5 0
BBX 5 7 0 -1
BITMAP
0A4900
680860
990990
990990
7C3C90
1CFB80
001000
ENDCHAR
STARTCHAR yacute
ENCODING 253
SWIDTH 562 0
DWIDTH 5 0
BBX 5 10 0 -2
BITMAP
000100
008C00
005100
660660
990990
990990
7C3C90
1CFF90
038E40
05B500
ENDCHAR
STARTCHAR thorn
ENCODING 254
SWIDTH 608 0
DWIDTH 5 0
BBX 6 9 0 -2
BITMAP
570000
8B0000
8DCB30
8F79E1
8B00F3
8E36F2
8EFE60
8A1000
780000
ENDCHAR
STARTCHAR ydieresis
ENCODING 255
SWIDTH 562 0
DWIDTH 5 0
BBX 5 8 0 -2
BITMAP
0A4900
680860
990990
990990
7C3C90
1CFF90
038E40
05B500
ENDCHAR
STARTCHAR Amacron
ENCODING 256
SWIDTH 673 0
DWIDTH 6 0
BBX 6 8 0 0
BITMAP
01BB20
006600
0BFFB0
5E22E6
7C00B8
7D88D8
7EBBE8
7C00B8
ENDCHAR
STARTCHAR amacron
ENCODING 257
SWIDTH 607 0
DWIDTH 5 0
BBX 5 7 0 -1
BITMAP
06B700
0AFB70
8D6CF0
B704F0
9B29F0
2CFDB0
001000
ENDCHAR
STARTCHAR Abreve
ENCODING 258
SWIDTH 673 0
DWIDTH 6 0
BBX 6 9 0 0
BITMAP
001100
00CC00
004400
0BFFB0
5E22E6
7C00B8
7D88D8
7EBBE8
7C00B8
ENDCHAR
STARTCHAR abreve
ENCODING 259
SWIDTH 607 0
DWIDTH 5 0
BBX 5 8 0 -1
BITMAP
011100
06D600
08EA70
8D6CF0
B704F0
9B29F0
2CFDB0
001000
ENDCHAR
STARTCHAR Aogonek
ENCODING 260
SWIDTH 673 0
DWIDTH 6 0
BBX 6 9 0 -2
BITMAP
003300
0BFFB0
5E22E6
7C00B8
7D88D8
7EBBE8
7C00B8
0000C3
000076
ENDCHAR
STARTCHAR aogonek
ENCODING 261
SWIDTH 607 0
DWIDTH 5 0
BBX 6 7 0 -2
BITMAP
08DA70
8D6CF0
B704F0
9B29F0
2CFDB0
0011C2
000084
ENDCHAR
STARTCHAR Cacute
ENCODING 262
SWIDTH 640 0
DWIDTH 6 0
BBX 6 10 0 -1
BITMAP
000010
000A90
003B30
0AFEF6
6E3031
B90000
AA0000
4F7372
06EFE4
000200
ENDCHAR
STARTCHAR cacute
ENCODING 263
SWIDTH 521 0
DWIDTH 5 0
BBX 5 9 0 -1
BITMAP
000100
008B00
005100
08DA10
7D6B40
B70000
9B2720
1CFD30
001000
ENDCHAR
STARTCHAR Ccircumflex
ENCODING 264
SWIDTH 640 0
DWIDTH 6 0
BBX 6 10 0 -1
BITMAP
000100
007D30
006740
0AFEF6
6E3031
B90000
AA0000
4F7372
06EFE4
000200
ENDCHAR
STARTCHAR ccircumflex
ENCODING 265
SWIDTH 521 0
DWIDTH 5 0
BBX 5 9 0 -1
BITMAP
001000
04E600
022300
08DA10
7D6B40
B70000
9B2720
1CFD30
001000
ENDCHAR
STARTCHAR Cdotaccent
ENCODING 266
SWIDTH 640 0
DWIDTH 6 0
BBX 6 9 0 -1
BITMAP
001C00
003730
0AFEF6
6E3031
B90000
AA0000
4F7372
06EFE4
000200
ENDCHAR
STARTCHAR cdotaccent
ENCODING 267
SWIDTH 521 0
DWIDTH 5 0
BBX 5 7 0 -1
BITMAP
00C100
08EA10
7D6B40
B70000
9B2720
1CFD30
001000
ENDCHAR
STARTCHAR Ccaron
ENCODING 268
SWIDTH 640 0
DWIDTH 6 0
BBX 6 10 0 -1
BITMAP
002110
007E50
003830
0AFEF6
6E3031
B90000
AA0000
4F7372
06EFE4
000200
ENDCHAR
STARTCHAR ccaron
ENCODING 269
SWIDTH 521 0
DWIDTH 5 0
BBX 5 9 0 -1
BITMAP
011200
04D700
002000
08DA10
7D6B40
B70000
9B2720
1CFD30
001000
ENDCHAR
STARTCHAR Dcaron
ENCODING 270
SWIDTH 653 0
DWIDTH 6 0
BBX 6 9 0 0
BITMAP
002200
01CC00
246300
6FFF80
6D05F4
6D00B9
6D00C8
6D49E2
6FFC40
ENDCHAR
STARTCHAR dcaron
ENCODING 271
SWIDTH 740 0
DWIDTH 7 0
BBX 7 8 0 -1
BITMAP
00029120
0003F690
08DBF130
7D6CF000
B704F000
9C3AF000
1CFDB000
00100000
ENDCHAR
STARTCHAR Dcroat
ENCODING 272
SWIDTH 672 0
DWIDTH 6 0
BBX 6 7 0 0
BITMAP
144200
4FFFA0
4F03E7
CF908B
8F509B
4F48F4
4FFD50
ENDCHAR
STARTCHAR dcroat
ENCODING 273
SWIDTH 606 0
DWIDTH 5 0
BBX 6 8 0 -1
BITMAP
000492
0009F6
08DBF0
7D6CF0
B704F0
9C3AF0
1CFDB0
001000
ENDCHAR
STARTCHAR Emacron
ENCODING 274
SWIDTH 578 0
DWIDTH 5 0
BBX 5 8 0 0
BITMAP
03BB00
257740
6FEED0
6D0000
6FCB00
6E7700
6D4440
6FFFE0
ENDCHAR
STARTCHAR emacron
ENCODING 275
SWIDTH 524 0
DWIDTH 5 0
BBX 5 7 0 -1
BITMAP
06B700
1AFC10
8D8F40
B8D700
9FB720
1CFD30
001000
ENDCHAR
STARTCHAR Ebreve
ENCODING 276
SWIDTH 578 0
DWIDTH 5 0
BBX 5 9 0 0
BITMAP
001100
03D900
246540
6FEED0
6D0000
6FCB00
6E7700
6D4440
6FFFE0
ENDCHAR
STARTCHAR ebreve
ENCODING 277
SWIDTH 524 0
DWIDTH 5 0
BBX 5 8 0 -1
BITMAP
011100
06D600
18EA10
8D8F40
B8D700
9FB720
1CFD30
001000
ENDCHAR
STARTCHAR Edotaccent
ENCODING 278
SWIDTH 578 0
DWIDTH 5 0
BBX 5 8 0 0
BITMAP
00A300
246540
6FEED0
6D0000
6FCB00
6E7700
6D4440
6FFFE0
ENDCHAR
STARTCHAR edotaccent
ENCODING 279
SWIDTH 524 0
DWIDTH 5 0
BBX 5 7 0 -1
BITMAP
00C100
18EA10
8D8F40
B8D700
9FB720
1CFD30
001000
ENDCHAR
STARTCHAR Eogonek
ENCODING 280
SWIDTH 578 0
DWIDTH 5 0
BBX 5 9 0 -2
BITMAP
244440
6FEED0
6D0000
6FCB00
6E7700
6D4440
6FFFE0
000C30
000750
ENDCHAR
STARTCHAR eogonek
ENCODING 281
SWIDTH 524 0
DWIDTH 5 0
BBX 5 7 0 -2
BITMAP
18DA10
8D8F40
B8D700
9FB720
1CFE30
008800
003810
ENDCHAR
STARTCHAR Ecaron
ENCODING 282
SWIDTH 578 0
DWIDTH 5 0
BBX 5 9 0 0
BITMAP
001200
03DA00
247540
6FEED0
6D0000
6FCB00
6E7700
6D4440
6FFFE0
ENDCHAR
STARTCHAR ecaron
ENCODING 283
SWIDTH 524 0
DWIDTH 5 0
BBX 5 9 0 -1
BITMAP
011100
05E700
002000
18DA10
8D8F40
B8D700
9FB720
1CFD30
001000
ENDCHAR
STARTCHAR Gcircumflex
ENCODING 284
SWIDTH 665 0
DWIDTH 6 0
BBX 6 10 0 -1
BITMAP
000100
007E30
006740
0AFEF5
6E3031
B90011
AA0099
5F72B9
06EFE5
000200
ENDCHAR
STARTCHAR gcircumflex
ENCODING 285
SWIDTH 607 0
DWIDTH 5 0
BBX 5 10 0 -2
BITMAP
001000
04E600
022300
08DA70
7D6CF0
B704F0
9C39F0
2CFEF0
007CA0
00C910
ENDCHAR
STARTCHAR Gbreve
ENCODING 286
SWIDTH 665 0
DWIDTH 6 0
BBX 6 10 0 -1
BITMAP
001100
008D40
003720
0AFEF5
6E3031
B90011
AA0099
5F72B9
06EFE5
000200
ENDCHAR
STARTCHAR gbreve
ENCODING 287
SWIDTH 607 0
DWIDTH 5 0
BBX 5 9 0 -2
BITMAP
011100
05D700
08EA70
7D6CF0
B704F0
9C39F0
2CFEF0
007CA0
00C910
ENDCHAR
STARTCHAR Gdotaccent
ENCODING 288
SWIDTH 665 0
DWIDTH 6 0
BBX 6 9 0 -1
BITMAP
002B00
003620
0AFEF5
6E3031
B90011
AA0099
5F72B9
06EFE5
000200
ENDCHAR
STARTCHAR gdotaccent
ENCODING 289
SWIDTH 607 0
DWIDTH 5 0
BBX 5 8 0 -2
BITMAP
00C100
08EA70
7D6CF0
B704F0
9C39F0
2CFEF0
007CA0
00C910
ENDCHAR
STARTCHAR Gcommaaccent
ENCODING 290
SWIDTH 665 0
DWIDTH 6 0
BBX 6 10 0 -3
BITMAP
003520
0AFEF5
6E3031
B90011
AA0099
5F72B9
06EFE5
002800
001C00
000200
ENDCHAR
STARTCHAR gcommaaccent
ENCODING 291
SWIDTH 607 0
DWIDTH 5 0
BBX 5 9 0 -2
BITMAP
005000
00E100
08FA70
7D6CF0
B704F0
9C39F0
2CFEF0
007CA0
00C910
ENDCHAR
STARTCHAR Hcircumflex
ENCODING 292
SWIDTH 689 0
DWIDTH 6 0
BBX 6 9 0 0
BITMAP
000100
00AC10
243333
6D00A9
6D00A9
6FCCE9
6E77C9
6D00A9
6D00A9
ENDCHAR
STARTCHAR hcircumflex
ENCODING 293
SWIDTH 562 0
DWIDTH 5 0
BBX 5 8 0 0
BITMAP
000100
56BC10
8A3300
8DB800
8E7D60
8A08A0
8A08A0
8A08A0
ENDCHAR
STARTCHAR Hbar
ENCODING 294
SWIDTH 689 0
DWIDTH 6 0
BBX 7 7 0 0
BITMAP
24003300
AE88CC10
BEAADD10
6FCCE900
6E77C900
6D00A900
6D00A900
ENDCHAR
STARTCHAR hbar
ENCODING 295
SWIDTH 562 0
DWIDTH 5 0
BBX 5 7 0 0
BITMAP
770000
EE1000
8DB800
8E7D60
8A08A0
8A08A0
8A08A0
ENDCHAR
STARTCHAR Itilde
ENCODING 296
SWIDTH 270 0
DWIDTH 2 0
BBX 4 9 -1 0
BITMAP
0212
2ED9
1561
06D0
06D0
06D0
06D0
06D0
06D0
ENDCHAR
STARTCHAR itilde
ENCODING 297
SWIDTH 235 0
DWIDTH 2 0
BBX 4 7 -1 0
BITMAP
0211
4DD7
18A1
08A0
08A0
08A0
08A0
ENDCHAR
STARTCHAR Imacron
ENCODING 298
SWIDTH 270 0
DWIDTH 2 0
BBX 3 8 0 0
BITMAP
AB40
4710
6D00
6D00
6D00
6D00
6D00
6D00
ENDCHAR
STARTCHAR imacron
ENCODING 299
SWIDTH 235 0
DWIDTH 2 0
BBX 4 6 -1 0
BITMAP
1BB2
09A0
08A0
08A0
08A0
08A0
ENDCHAR
STARTCHAR Ibreve
ENCODING 300
SWIDTH 270 0
DWIDTH 2 0
BBX 3 9 0 0
BITMAP
1100
AD20
2500
6D00
6D00
6D00
6D00
6D00
6D00
ENDCHAR
STARTCHAR ibreve
ENCODING 301
SWIDTH 235 0
DWIDTH 2 0
BBX 2 7 0 0
BITMAP
11
CD
68
8A
8A
8A
8A
ENDCHAR
STARTCHAR Iogonek
ENCODING 302
SWIDTH 270 0
DWIDTH 2 0
BBX 2 9 0 -2
BITMAP
24
6D
6D
6D
6D
6D
6D
96
48
ENDCHAR
STARTCHAR iogonek
ENCODING 303
SWIDTH 235 0
DWIDTH 2 0
BBX 2 9 0 -2
BITMAP
68
78
67
8A
8A
8A
8A
A5
57
ENDCHAR
STARTCHAR Idotaccent
ENCODING 304
SWIDTH 270 0
DWIDTH 2 0
BBX 2 8 0 0
BITMAP
49
25
6D
6D
6D
6D
6D
6D
ENDCHAR
STARTCHAR dotlessi
ENCODING 305
SWIDTH 235 0
DWIDTH 2 0
BBX 2 5 0 0
BITMAP
67
8A
8A
8A
8A
ENDCHAR
STARTCHAR IJ
ENCODING 306
SWIDTH 687 0
DWIDTH 6 0
BBX 6 7 0 0
BITMAP
240033
6D009A
6D009A
6D009A
6D009A
6D25E6
6D7E80
ENDCHAR
STARTCHAR ij
ENCODING 307
SWIDTH 474 0
DWIDTH 4 0
BBX 4 9 0 -2
BITMAP
685A
785A
6749
8A6C
8A6C
8A6C
8A7C
17D7
2C70
ENDCHAR
STARTCHAR Jcircumflex
ENCODING 308
SWIDTH 416 0
DWIDTH 4 0
BBX 4 9 0 0
BITMAP
0010
04E6
0264
00F4
00F4
00F4
01F3
49E1
DC40
ENDCHAR
STARTCHAR jcircumflex
ENCODING 309
SWIDTH 237 0
DWIDTH 2 0
BBX 5 9 -2 -2
BITMAP
000100
00BC10
009A00
008A00
008A00
008A00
009A00
27E500
4B6000
ENDCHAR
STARTCHAR Kcommaaccent
ENCODING 310
SWIDTH 625 0
DWIDTH 6 0
BBX 6 10 0 -3
BITMAP
240042
6D06E2
6D3E40
6DDC00
6FCF40
6E29C0
6D02F5
005200
008500
001000
ENDCHAR
STARTCHAR kcommaaccent
ENCODING 311
SWIDTH 539 0
DWIDTH 5 0
BBX 5 10 0 -3
BITMAP
560000
8A0000
8A0960
8A7D10
8DF700
8FAE10
8B0C80
017000
01C000
002000
ENDCHAR
STARTCHAR kgreenlandic
ENCODING 312
SWIDTH 539 0
DWIDTH 5 0
BBX 5 5 0 0
BITMAP
670960
8A7D10
8DF700
8FAE10
8B0C80
ENDCHAR
STARTCHAR Lacute
ENCODING 313
SWIDTH 562 0
DWIDTH 5 0
BBX 5 9 0 0
BITMAP
000100
00AA00
245000
6D0000
6D0000
6D0000
6D0000
6D4440
6FFFF0
ENDCHAR
STARTCHAR lacute
ENCODING 314
SWIDTH 235 0
DWIDTH 2 0
BBX 3 10 0 0
BITMAP
0010
0A90
0500
5600
8A00
8A00
8A00
8A00
8A00
8A00
ENDCHAR
STARTCHAR Lcommaaccent
ENCODING 315
SWIDTH 562 0
DWIDTH 5 0
BBX 5 10 0 -3
BITMAP
240000
6D0000
6D0000
6D0000
6D0000
6D4440
6FFFF0
007000
00C100
002000
ENDCHAR
STARTCHAR lcommaaccent
ENCODING 316
SWIDTH 235 0
DWIDTH 2 0
BBX 2 10 0 -3
BITMAP
56
8A
8A
8A
8A
8A
8A
34
49
11
ENDCHAR
STARTCHAR Lcaron
ENCODING 317
SWIDTH 562 0
DWIDTH 5 0
BBX 5 7 0 0
BITMAP
242200
6D7800
6D2200
6D0000
6D0000
6D4440
6FFFF0
ENDCHAR
STARTCHAR lcaron
ENCODING 318
SWIDTH 369 0
DWIDTH 3 0
BBX 4 7 0 0
BITMAP
5630
8AB4
8A40
8A00
8A00
8A00
8A00
ENDCHAR
STARTCHAR Ldot
ENCODING 319
SWIDTH 745 0
DWIDTH 7 0
BBX 7 7 0 0
BITMAP
24000000
6D000000
6D000000
6D002C20
6D001810
6D444000
6FFFF000
ENDCHAR
STARTCHAR ldotaccent
ENCODING 320
SWIDTH 463 0
DWIDTH 4 0
BBX 4 7 0 0
BITMAP
5600
8A00
8A00
8A88
8A55
8A00
8A00
ENDCHAR
STARTCHAR Lslash
ENCODING 321
SWIDTH 585 0
DWIDTH 5 0
BBX 6 7 0 0
BITMAP
140000
3F1000
3F4000
6FA000
DF1000
3F4441
3FFFF3
ENDCHAR
STARTCHAR lslash
ENCODING 322
SWIDTH 319 0
DWIDTH 3 0
BBX 3 7 0 0
BITMAP
2900
3F00
3F40
6FB0
DF00
3F00
3F00
ENDCHAR
STARTCHAR Nacute
ENCODING 323
SWIDTH 689 0
DWIDTH 6 0
BBX 6 9 0 0
BITMAP
000100
002D50
241533
6F60A9
6FE1A9
6DC9A9
6D3FC9
6D09F9
6D01E9
ENDCHAR
STARTCHAR nacute
ENCODING 324
SWIDTH 562 0
DWIDTH 5 0
BBX 5 8 0 0
BITMAP
000100
005E10
004200
57B800
8E7D60
8A08A0
8A08A0
8A08A0
ENDCHAR
STARTCHAR Ncommaaccent
ENCODING 325
SWIDTH 689 0
DWIDTH 6 0
BBX 6 10 0 -3
BITMAP
240033
6F60A9
6FE1A9
6DC9A9
6D3FC9
6D09F9
6D01E9
003500
004900
000100
ENDCHAR
STARTCHAR ncommaaccent
ENCODING 326
SWIDTH 562 0
DWIDTH 5 0
BBX 5 8 0 -3
BITMAP
57B800
8E7D60
8A08A0
8A08A0
8A08A0
007000
00C100
002000
ENDCHAR
STARTCHAR Ncaron
ENCODING 327
SWIDTH 689 0
DWIDTH 6 0
BBX 6 9 0 0
BITMAP
002200
00BD10
241233
6F60A9
6FE1A9
6DC9A9
6D3FC9
6D09F9
6D01E9
ENDCHAR
STARTCHAR ncaron
ENCODING 328
SWIDTH 562 0
DWIDTH 5 0
BBX 5 8 0 0
BITMAP
010100
05E600
002000
57B800
8E7D60
8A08A0
8A08A0
8A08A0
ENDCHAR
STARTCHAR napostrophe
ENCODING 329
SWIDTH 694 0
DWIDTH 6 0
BBX 6 7 0 0
BITMAP
300000
D20000
447B91
05F8C9
05D05D
05D05D
05D05D
ENDCHAR
STARTCHAR Eng
ENCODING 330
SWIDTH 689 0
DWIDTH 6 0
BBX 6 9 0 -2
BITMAP
240033
6F60A9
6FE1A9
6DC9A9
6D3FC9
6D09F9
6D01E9
0049F4
006B50
ENDCHAR
STARTCHAR eng
ENCODING 331
SWIDTH 562 0
DWIDTH 5 0
BBX 5 7 0 -2
BITMAP
57B800
8E7D60
8A08A0
8A08A0
8A0990
027E50
04B600
ENDCHAR
STARTCHAR Omacron
ENCODING 332
SWIDTH 777 0
DWIDTH 7 0
BBX 7 9 0 -1
BITMAP
007B7000
00484000
0AFEFA00
6E303E60
B90009B0
AA000AA0
4F737F40
06EFE600
00020000
ENDCHAR
STARTCHAR omacron
ENCODING 333
SWIDTH 579 0
DWIDTH 5 0
BBX 5 7 0 -1
BITMAP
06B800
0AFC20
8D6BB0
B704E0
9C29C0
1BFD30
001000
ENDCHAR
STARTCHAR Obreve
ENCODING 334
SWIDTH 777 0
DWIDTH 7 0
BBX 7 10 0 -1
BITMAP
00111000
005D6000
00373000
0AFEFA00
6E303E60
B90009B0
AA000AA0
4F737F40
06EFE600
00020000
ENDCHAR
STARTCHAR obreve
ENCODING 335
SWIDTH 579 0
DWIDTH 5 0
BBX 5 8 0 -1
BITMAP
001100
04D800
08EA20
8D6BB0
B704E0
9C29C0
1BFD30
001000
ENDCHAR
STARTCHAR Ohungarumlaut
ENCODING 336
SWIDTH 777 0
DWIDTH 7 0
BBX 7 10 0 -1
BITMAP
00173100
009AE500
00456000
0AFEFA00
6E303E60
B90009B0
AA000AA0
4F737F40
06EFE600
00020000
ENDCHAR
STARTCHAR ohungarumlaut
ENCODING 337
SWIDTH 579 0
DWIDTH 5 0
BBX 5 8 0 -1
BITMAP
007320
07BD70
09DD20
8D6BB0
B704E0
9C29C0
1BFD30
001000
ENDCHAR
STARTCHAR OE
ENCODING 338
SWIDTH 1125 0
DWIDTH 10 0
BBX 10 8 0 -1
BITMAP
0035324444
0AFEFEFEEC
6E303EC000
B90009ECA0
AA000AD760
4F737FD443
06EFECFFFC
0002000000
ENDCHAR
STARTCHAR oe
ENCODING 339
SWIDTH 924 0
DWIDTH 8 0
BBX 9 6 0 -1
BITMAP
08DA4BD700
8D6BFACC10
B704F5E200
9C29FF7700
1BFD7EFA00
0010001000
ENDCHAR
STARTCHAR Racute
ENCODING 340
SWIDTH 651 0
DWIDTH 6 0
BBX 6 9 0 0
BITMAP
000100
003E20
247700
6FEFC1
6D01D7
6D00B9
6E8AF4
6EBE90
6D06E0
ENDCHAR
STARTCHAR racute
ENCODING 341
SWIDTH 414 0
DWIDTH 4 0
BBX 4 8 0 0
BITMAP
0010
02D4
0240
56A7
8E85
8A00
8A00
8A00
ENDCHAR
STARTCHAR Rcommaaccent
ENCODING 342
SWIDTH 651 0
DWIDTH 6 0
BBX 6 10 0 -3
BITMAP
244300
6FEFC1
6D01D7
6D00B9
6E8AF4
6EBE90
6D06E0
004300
006700
001100
ENDCHAR
STARTCHAR rcommaaccent
ENCODING 343
SWIDTH 414 0
DWIDTH 4 0
BBX 4 8 0 -3
BITMAP
56A7
8E85
8A00
8A00
8A00
4400
5800
1100
ENDCHAR
STARTCHAR Rcaron
ENCODING 344
SWIDTH 651 0
DWIDTH 6 0
BBX 6 9 0 0
BITMAP
002200
01CC00
246500
6FEFC1
6D01D7
6D00B9
6E8AF4
6EBE90
6D06E0
ENDCHAR
STARTCHAR rcaron
ENCODING 345
SWIDTH 414 0
DWIDTH 4 0
BBX 4 7 0 0
BITMAP
0220
2DB0
58B7
8E85
8A00
8A00
8A00
ENDCHAR
STARTCHAR Sacute
ENCODING 346
SWIDTH 610 0
DWIDTH 6 0
BBX 6 9 0 0
BITMAP
000100
003E20
027740
6FEEE0
B90000
7ECB50
0579F2
2445F2
7FFE80
ENDCHAR
STARTCHAR sacute
ENCODING 347
SWIDTH 523 0
DWIDTH 5 0
BBX 5 8 0 0
BITMAP
000100
008C00
005100
29BB20
9C8820
7EDC20
268D70
BFFD20
ENDCHAR
STARTCHAR Scircumflex
ENCODING 348
SWIDTH 610 0
DWIDTH 6 0
BBX 6 9 0 0
BITMAP
001000
02D800
037840
6FEEE0
B90000
7ECB50
0579F2
2445F2
7FFE80
ENDCHAR
STARTCHAR scircumflex
ENCODING 349
SWIDTH 523 0
DWIDTH 5 0
BBX 5 8 0 0
BITMAP
001000
07E300
032200
29BB20
9C8820
7EDC20
268D70
BFFD20
ENDCHAR
STARTCHAR Scedilla
ENCODING 350
SWIDTH 610 0
DWIDTH 6 0
BBX 6 9 0 -2
BITMAP
024440
6FEEE0
B90000
7ECB50
0579F2
2445F2
7FFE80
008500
01C800
ENDCHAR
STARTCHAR scedilla
ENCODING 351
SWIDTH 523 0
DWIDTH 5 0
BBX 5 7 0 -2
BITMAP
29BB20
9C8820
7EDC20
268D70
BFFD20
00B100
06D200
ENDCHAR
STARTCHAR Scaron
ENCODING 352
SWIDTH 610 0
DWIDTH 6 0
BBX 6 9 0 0
BITMAP
011200
03D900
027540
6FEEE0
B90000
7ECB50
0579F2
2445F2
7FFE80
ENDCHAR
STARTCHAR scaron
ENCODING 353
SWIDTH 523 0
DWIDTH 5 0
BBX 5 7 0 0
BITMAP
021100
06E500
29DB20
9C8820
7EDC20
268D70
BFFD20
ENDCHAR
STARTCHAR Tcommaaccent
ENCODING 354
SWIDTH 578 0
DWIDTH 5 0
BBX 6 10 0 -3
BITMAP
444441
DEFEE2
00F400
00F400
00F400
00F400
00F400
007100
00B200
002000
ENDCHAR
STARTCHAR tcommaaccent
ENCODING 355
SWIDTH 437 0
DWIDTH 4 0
BBX 4 10 0 -3
BITMAP
2800
4E00
AFB8
9E86
4E00
2F52
07EB
0440
0670
0110
ENDCHAR
STARTCHAR Tcaron
ENCODING 356
SWIDTH 578 0
DWIDTH 5 0
BBX 6 9 0 0
BITMAP
011200
05D700
447441
DEFEE2
00F400
00F400
00F400
00F400
00F400
ENDCHAR
STARTCHAR tcaron
ENCODING 357
SWIDTH 570 0
DWIDTH 5 0
BBX 6 7 0 0
BITMAP
280030
4E00E1
AFB840
9E8600
4E0000
2F5200
07EB00
ENDCHAR
STARTCHAR Tbar
ENCODING 358
SWIDTH 578 0
DWIDTH 5 0
BBX 6 7 0 0
BITMAP
444441
DEFEE2
00F400
03F700
0AFD00
00F400
00F400
ENDCHAR
STARTCHAR tbar
ENCODING 359
SWIDTH 437 0
DWIDTH 4 0
BBX 4 7 0 0
BITMAP
2800
4E00
AFB8
9E86
DFD0
3F62
07EB
ENDCHAR
STARTCHAR Utilde
ENCODING 360
SWIDTH 673 0
DWIDTH 6 0
BBX 6 9 0 0
BITMAP
002110
05DD60
252342
7C00B8
7C00B8
7C00B8
7C00B8
3F76F4
06EE70
ENDCHAR
STARTCHAR utilde
ENCODING 361
SWIDTH 562 0
DWIDTH 5 0
BBX 5 8 0 -1
BITMAP
011200
0CCD00
6A1960
990990
990990
7C3C90
1CFB80
001000
ENDCHAR
STARTCHAR Umacron
ENCODING 362
SWIDTH 673 0
DWIDTH 6 0
BBX 6 8 0 0
BITMAP
01BB20
243342
7C00B8
7C00B8
7C00B8
7C00B8
3F76F4
06EE70
ENDCHAR
STARTCHAR umacron
ENCODING 363
SWIDTH 562 0
DWIDTH 5 0
BBX 5 7 0 -1
BITMAP
07B700
683860
990990
990990
7C3C90
1CFB80
001000
ENDCHAR
STARTCHAR Ubreve
ENCODING 364
SWIDTH 673 0
DWIDTH 6 0
BBX 6 9 0 0
BITMAP
001100
00CD00
231132
7C00B8
7C00B8
7C00B8
7C00B8
3F76F4
06EE70
ENDCHAR
STARTCHAR ubreve
ENCODING 365
SWIDTH 562 0
DWIDTH 5 0
BBX 5 8 0 -1
BITMAP
011100
06D600
662660
990990
990990
7C3C90
1CFB80
001000
ENDCHAR
STARTCHAR Uring
ENCODING 366
SWIDTH 673 0
DWIDTH 6 0
BBX 6 9 0 0
BITMAP
002300
00AA00
233332
7C00B8
7C00B8
7C00B8
7C00B8
3F76F4
06EE70
ENDCHAR
STARTCHAR uring
ENCODING 367
SWIDTH 562 0
DWIDTH 5 0
BBX 5 8 0 -1
BITMAP
004000
04C500
675760
990990
990990
7C3C90
1CFB80
001000
ENDCHAR
STARTCHAR Uhungarumlaut
ENCODING 368
SWIDTH 673 0
DWIDTH 6 0
BBX 6 9 0 0
BITMAP
005340
01DAC1
231242
7C00B8
7C00B8
7C00B8
7C00B8
3F76F4
06EE70
ENDCHAR
STARTCHAR uhungarumlaut
ENCODING 369
SWIDTH 562 0
DWIDTH 5 0
BBX 5 8 0 -1
BITMAP
017310
08BD60
670960
990990
990990
7C3C90
1CFB80
001000
ENDCHAR
STARTCHAR Uogonek
ENCODING 370
SWIDTH 673 0
DWIDTH 6 0
BBX 6 9 0 -2
BITMAP
230032
7C00B8
7C00B8
7C00B8
7C00B8
3F76F5
06EE70
00C300
006600
ENDCHAR
STARTCHAR uogonek
ENCODING 371
SWIDTH 562 0
DWIDTH 5 0
BBX 6 7 0 -2
BITMAP
660660
990990
990990
7C3C90
1CFB80
001690
000381
ENDCHAR
STARTCHAR Wcircumflex
ENCODING 372
SWIDTH 819 0
DWIDTH 7 0
BBX 7 10 0 -1
BITMAP
00010000
003E7000
24165240
7C0E56D0
7C0E56D0
7C0E56D0
7C0E56D0
6D4F89C0
1CFCFE40
00100000
ENDCHAR
STARTCHAR wcircumflex
ENCODING 373
SWIDTH 756 0
DWIDTH 7 0
BBX 7 8 0 -1
BITMAP
00010000
006E4000
665C2840
993F0C60
993F0C60
8B5F3D50
2DFCFC10
00101000
ENDCHAR
STARTCHAR Ycircumflex
ENCODING 374
SWIDTH 620 0
DWIDTH 6 0
BBX 6 9 0 0
BITMAP
001000
02D900
332341
B800E5
B800F4
8D47F2
1BFE60
00D600
00D600
ENDCHAR
STARTCHAR ycircumflex
ENCODING 375
SWIDTH 562 0
DWIDTH 5 0
BBX 5 9 0 -2
BITMAP
001000
04E500
692960
990990
990990
7C3C90
1CFF90
038E40
05B500
ENDCHAR
STARTCHAR Ydieresis
ENCODING 376
SWIDTH 620 0
DWIDTH 6 0
BBX 6 8 0 0
BITMAP
066B10
331241
B800E5
B800F4
8D47F2
1BFE60
00D600
00D600
ENDCHAR
STARTCHAR Zacute
ENCODING 377
SWIDTH 586 0
DWIDTH 5 0
BBX 6 9 0 0
BITMAP
000100
005E10
448740
BEEFA0
006F20
01D900
07E100
1EB440
8FFFF1
ENDCHAR
STARTCHAR zacute
ENCODING 378
SWIDTH 481 0
DWIDTH 4 0
BBX 5 8 0 0
BITMAP
000100
00B800
005000
8BBA00
68F700
06D000
1E8300
8FFF20
ENDCHAR
STARTCHAR Zdotaccent
ENCODING 379
SWIDTH 586 0
DWIDTH 5 0
BBX 6 8 0 0
BITMAP
00B200
446440
BEEFA0
006F20
01D900
07E100
1EB440
8FFFF1
ENDCHAR
STARTCHAR zdotaccent
ENCODING 380
SWIDTH 481 0
DWIDTH 4 0
BBX 5 6 0 0
BITMAP
049000
8BCA00
68F700
06D000
1E8300
8FFF20
ENDCHAR
STARTCHAR Zcaron
ENCODING 381
SWIDTH 586 0
DWIDTH 5 0
BBX 6 9 0 0
BITMAP
011200
04D800
447440
BEEFA0
006F20
01D900
07E100
1EB440
8FFFF1
ENDCHAR
STARTCHAR zcaron
ENCODING 382
SWIDTH 481 0
DWIDTH 4 0
BBX 5 7 0 0
BITMAP
021000
0BD200
8BDA00
68F700
06D000
1E8300
8FFF20
ENDCHAR
STARTCHAR AEacute
ENCODING 508
SWIDTH 988 0
DWIDTH 9 0
BBX 9 9 0 0
BITMAP
0000010000
00003E3000
0034784430
0BFEFFEE90
5E20B80000
7C00BEC700
7D88DC7400
7EBBEA4420
7C00BFFF90
ENDCHAR
STARTCHAR aeacute
ENCODING 509
SWIDTH 976 0
DWIDTH 9 0
BBX 9 9 0 -1
BITMAP
0000010000
00004E1000
0000420000
08DA78DB20
8D6CFE8F50
B704F8C800
9B29FFB720
2CFDBBFE40
0010001000
ENDCHAR
STARTCHAR Oslashacute
ENCODING 510
SWIDTH 777 0
DWIDTH 7 0
BBX 7 10 0 -1
BITMAP
00001000
0008C000
003A4410
0AFEFE10
6E32EE60
B90C59B0
AA990AA0
4FE37F40
2EEFE600
00020000
ENDCHAR
STARTCHAR oslashacute
ENCODING 511
SWIDTH 579 0
DWIDTH 5 0
BBX 5 9 0 -1
BITMAP
000100
005E10
004200
08DB80
8D8FB0
B8D9E0
9FA9C0
6EFD30
001000
ENDCHAR
STARTCHAR dotlessj
ENCODING 567
SWIDTH 237 0
DWIDTH 2 0
BBX 4 7 -2 -2
BITMAP
0067
008A
008A
008A
009A
27E5
4B60
ENDCHAR
STARTCHAR circumflex
ENCODING 710
SWIDTH 267 0
DWIDTH 2 0
BBX 3 3 0 4
BITMAP
0100
9D20
3310
ENDCHAR
STARTCHAR caron
ENCODING 711
SWIDTH 267 0
DWIDTH 2 0
BBX 3 3 0 4
BITMAP
2100
AD20
0200
ENDCHAR
STARTCHAR breve
ENCODING 728
SWIDTH 220 0
DWIDTH 2 0
BBX 2 3 0 4
BITMAP
11
CC
11
ENDCHAR
STARTCHAR dotaccent
ENCODING 729
SWIDTH 125 0
DWIDTH 1 0
BBX 2 2 0 4
BITMAP
C1
10
ENDCHAR
STARTCHAR ring
ENCODING 730
SWIDTH 192 0
DWIDTH 2 0
BBX 2 3 0 4
BITMAP
32
B9
32
ENDCHAR
STARTCHAR ogonek
ENCODING 731
SWIDTH 212 0
DWIDTH 2 0
BBX 2 3 0 -2
BITMAP
11
C3
76
ENDCHAR
STARTCHAR tilde
ENCODING 732
SWIDTH 321 0
DWIDTH 3 0
BBX 3 3 0 4
BITMAP
1120
DCC0
4120
ENDCHAR
STARTCHAR hungarumlaut
ENCODING 733
SWIDTH 384 0
DWIDTH 3 0
BBX 4 3 0 4
BITMAP
2640
BAE3
1120
ENDCHAR
STARTCHAR uni0312
ENCODING 786
SWIDTH 192 0
DWIDTH 2 0
BBX 2 3 0 4
BITMAP
41
A5
11
ENDCHAR
STARTCHAR uni0315
ENCODING 789
SWIDTH 132 0
DWIDTH 1 0
BBX 2 3 0 4
BITMAP
30
D2
40
ENDCHAR
STARTCHAR uni0326
ENCODING 806
SWIDTH 193 0
DWIDTH 2 0
BBX 2 3 0 -3
BITMAP
53
76
10
ENDCHAR
STARTCHAR pi
ENCODING 960
SWIDTH 555 0
DWIDTH 5 0
BBX 5 5 0 0
BITMAP
9BBB90
7F9F70
2F3F20
2F3F20
2F3F20
ENDCHAR
STARTCHAR Wgrave
ENCODING 7808
SWIDTH 819 0
DWIDTH 7 0
BBX 7 10 0 -1
BITMAP
00100000
00B80000
24191240
7C0E56D0
7C0E56D0
7C0E56D0
7C0E56D0
6D4F89C0
1CFCFE40
00100000
ENDCHAR
STARTCHAR wgrave
ENCODING 7809
SWIDTH 756 0
DWIDTH 7 0
BBX 7 9 0 -1
BITMAP
00100000
02E40000
00330000
662B0840
993F0C60
993F0C60
8B5F3D50
2DFCFC10
00101000
ENDCHAR
STARTCHAR Wacute
ENCODING 7810
SWIDTH 819 0
DWIDTH 7 0
BBX 7 10 0 -1
BITMAP
00001000
0004E200
24084240
7C0E56D0
7C0E56D0
7C0E56D0
7C0E56D0
6D4F89C0
1CFCFE40
00100000
ENDCHAR
STARTCHAR wacute
ENCODING 7811
SWIDTH 756 0
DWIDTH 7 0
BBX 7 9 0 -1
BITMAP
00001000
0006D000
00051000
662B0840
993F0C60
993F0C60
8B5F3D50
2DFCFC10
00101000
ENDCHAR
STARTCHAR Wdieresis
ENCODING 7812
SWIDTH 819 0
DWIDTH 7 0
BBX 7 9 0 -1
BITMAP
0085B000
24154240
7C0E56D0
7C0E56D0
7C0E56D0
7C0E56D0
6D4F89C0
1CFCFE40
00100000
ENDCHAR
STARTCHAR wdieresis
ENCODING 7813
SWIDTH 756 0
DWIDTH 7 0
BBX 7 7 0 -1
BITMAP
00B58000
664B2840
993F0C60
993F0C60
8B5F3D50
2DFCFC10
00101000
ENDCHAR
STARTCHAR Ygrave
ENCODING 7922
SWIDTH 620 0
DWIDTH 6 0
BBX 6 9 0 0
BITMAP
010000
0C7000
335041
B800E5
B800F4
8D47F2
1BFE60
00D600
00D600
ENDCHAR
STARTCHAR ygrave
ENCODING 7923
SWIDTH 562 0
DWIDTH 5 0
BBX 5 10 0 -2
BITMAP
010000
2E4000
033000
660660
990990
990990
7C3C90
1CFF90
038E40
05B500
ENDCHAR
STARTCHAR endash
ENCODING 8211
SWIDTH 418 0
DWIDTH 4 0
BBX 4 2 0 2
BITMAP
5CC3
3661
ENDCHAR
STARTCHAR emdash
ENCODING 8212
SWIDTH 719 0
DWIDTH 6 0
BBX 6 2 0 2
BITMAP
5CCCCB
366666
ENDCHAR
STARTCHAR quoteleft
ENCODING 8216
SWIDTH 246 0
DWIDTH 2 0
BBX 2 3 0 4
BITMAP
01
77
8B
ENDCHAR
STARTCHAR quoteright
ENCODING 8217
SWIDTH 245 0
DWIDTH 2 0
BBX 2 3 0 4
BITMAP
12
9C
38
ENDCHAR
STARTCHAR quotesinglbase
ENCODING 8218
SWIDTH 264 0
DWIDTH 2 0
BBX 2 3 0 -1
BITMAP
01
7D
2A
ENDCHAR
STARTCHAR quotedblleft
ENCODING 8220
SWIDTH 445 0
DWIDTH 4 0
BBX 4 3 0 4
BITMAP
0110
77A4
8BB9
ENDCHAR
STARTCHAR quotedblright
ENCODING 8221
SWIDTH 444 0
DWIDTH 4 0
BBX 4 3 0 4
BITMAP
1221
9CC9
3865
ENDCHAR
STARTCHAR quotedblbase
ENCODING 8222
SWIDTH 463 0
DWIDTH 4 0
BBX 4 3 0 -1
BITMAP
0111
7DAA
2A58
ENDCHAR
STARTCHAR dagger
ENCODING 8224
SWIDTH 434 0
DWIDTH 4 0
BBX 4 9 0 -1
BITMAP
0220
0A90
6DC5
7DD6
0A90
0A90
0A90
0A90
0980
ENDCHAR
STARTCHAR daggerdbl
ENCODING 8225
SWIDTH 452 0
DWIDTH 4 0
BBX 4 9 0 -1
BITMAP
0220
09A0
5CD6
6DD7
09A0
09A0
9FFA
2AB2
0890
ENDCHAR
STARTCHAR bullet
ENCODING 8226
SWIDTH 354 0
DWIDTH 3 0
BBX 3 3 0 2
BITMAP
0200
4F70
1930
ENDCHAR
STARTCHAR ellipsis
ENCODING 8230
SWIDTH 789 0
DWIDTH 7 0
BBX 7 3 0 -1
BITMAP
01020110
7D2F3B90
13040210
ENDCHAR
STARTCHAR perthousand
ENCODING 8240
SWIDTH 998 0
DWIDTH 9 0
BBX 9 8 0 -1
BITMAP
1520310000
8AB2C00000
96C9500000
3B8C100100
00BAD99D60
04AA4CC4A0
0C26D99D60
0000100100
ENDCHAR
STARTCHAR guilsinglleft
ENCODING 8249
SWIDTH 403 0
DWIDTH 4 0
BBX 4 5 0 0
BITMAP
0050
08D1
7E20
2D90
02A1
ENDCHAR
STARTCHAR guilsinglright
ENCODING 8250
SWIDTH 402 0
DWIDTH 4 0
BBX 4 5 0 0
BITMAP
1400
5E30
06E2
2D90
4800
ENDCHAR
STARTCHAR fraction
ENCODING 8260
SWIDTH 477 0
DWIDTH 4 0
BBX 5 7 0 0
BITMAP
000310
001C00
009600
02C000
0A4000
4B0000
C30000
ENDCHAR
STARTCHAR Euro
ENCODING 8364
SWIDTH 806 0
DWIDTH 7 0
BBX 7 8 0 -1
BITMAP
00025400
006FEF90
17FC3120
3DEA4000
7EFD2000
24EC3550
003DFF70
00001000
ENDCHAR
STARTCHAR trademark
ENCODING 8482
SWIDTH 606 0
DWIDTH 5 0
BBX 5 3 0 4
BITMAP
252430
186980
065760
ENDCHAR
STARTCHAR partialdiff
ENCODING 8706
SWIDTH 609 0
DWIDTH 5 0
BBX 6 8 0 -1
BITMAP
00A800
003F20
07CF90
6E6AE0
A902F1
7D38E0
1BFE40
001000
ENDCHAR
STARTCHAR product
ENCODING 8719
SWIDTH 632 0
DWIDTH 6 0
BBX 6 7 0 0
BITMAP
344442
AFFFF5
0D6B80
0D6B80
0D6B80
0D6B80
0D6B80
ENDCHAR
STARTCHAR minus
ENCODING 8722
SWIDTH 543 0
DWIDTH 5 0
BBX 5 2 0 2
BITMAP
5CCC30
266620
ENDCHAR
STARTCHAR infinity
ENCODING 8734
SWIDTH 771 0
DWIDTH 7 0
BBX 7 4 0 1
BITMAP
2CE8EB10
8B7F6C70
8C5F6C70
2CE9EC10
ENDCHAR
STARTCHAR approxequal
ENCODING 8776
SWIDTH 476 0
DWIDTH 4 0
BBX 4 4 0 1
BITMAP
4D9A
4785
4EAA
4674
ENDCHAR
STARTCHAR notequal
ENCODING 8800
SWIDTH 512 0
DWIDTH 5 0
BBX 5 6 0 0
BITMAP
005900
6ADD10
49E810
7EFD20
3E7510
290000
ENDCHAR
STARTCHAR fi
ENCODING 64257
SWIDTH 650 0
DWIDTH 6 0
BBX 6 7 0 0
BITMAP
06EC95
2F52A5
9FBBB4
7F77E6
3F00C6
3F00C6
3F00C6
ENDCHAR
STARTCHAR fl
ENCODING 64258
SWIDTH 631 0
DWIDTH 6 0
BBX 6 7 0 0
BITMAP
06EFF4
2F53F4
9FB5F4
7F73F4
3F00F4
3F00F4
3F00F4
ENDCHAR
STARTCHAR .notdef
ENCODING -1
SWIDTH 279 0
DWIDTH 3 0
BBX 1 1 0 0
BITMAP
00
ENDCHAR
STARTCHAR .null
ENCODING -1
SWIDTH 0 0
DWIDTH 0 0
BBX 1 1 0 0
BITMAP
00
ENDCHAR
STARTCHAR nonmarkingreturn
ENCODING -1
SWIDTH 279 0
DWIDTH 3 0
BBX 1 1 0 0
BITMAP
00
ENDCHAR
ENDFONT
